<mxfile host="app.diagrams.net" modified="2023-05-08T19:05:51.422Z" agent="Mozilla/5.0 (Windows NT 10.0; Win64; x64) AppleWebKit/537.36 (KHTML, like Gecko) Chrome/113.0.0.0 Safari/537.36" etag="gbJ8zIf_OsPigrnBaoOj" version="21.2.0" type="device">
  <diagram name="Page-1" id="f0WWN4oKayC4aPjvuOwk">
    <mxGraphModel dx="1485" dy="719" grid="1" gridSize="10" guides="1" tooltips="1" connect="1" arrows="1" fold="1" page="1" pageScale="1" pageWidth="827" pageHeight="1169" math="0" shadow="0">
      <root>
        <mxCell id="0" />
        <mxCell id="1" parent="0" />
        <mxCell id="EZcokHrr8Fi_CWz-Pktu-1" value="&lt;font size=&quot;3&quot;&gt;USER&lt;/font&gt;" style="verticalAlign=top;align=center;spacingTop=8;spacingLeft=2;spacingRight=12;shape=cube;size=10;direction=south;fontStyle=4;html=1;whiteSpace=wrap;fillColor=#ffe6cc;strokeColor=#d79b00;" vertex="1" parent="1">
          <mxGeometry x="40" y="100" width="310" height="380" as="geometry" />
        </mxCell>
        <mxCell id="EZcokHrr8Fi_CWz-Pktu-9" value="" style="endArrow=none;html=1;rounded=0;" edge="1" parent="1" target="EZcokHrr8Fi_CWz-Pktu-1">
          <mxGeometry relative="1" as="geometry">
            <mxPoint x="40" y="150" as="sourcePoint" />
            <mxPoint x="200" y="150" as="targetPoint" />
            <Array as="points">
              <mxPoint x="340" y="150" />
            </Array>
          </mxGeometry>
        </mxCell>
        <mxCell id="EZcokHrr8Fi_CWz-Pktu-10" value="&lt;font style=&quot;font-size: 16px;&quot;&gt;&lt;br&gt;GIVE KEY INPUTS&lt;/font&gt;" style="shape=module;align=left;spacingLeft=20;align=center;verticalAlign=top;whiteSpace=wrap;html=1;fillColor=#fff2cc;strokeColor=#d6b656;" vertex="1" parent="1">
          <mxGeometry x="60" y="160" width="250" height="70" as="geometry" />
        </mxCell>
        <mxCell id="EZcokHrr8Fi_CWz-Pktu-11" value="&lt;font style=&quot;font-size: 16px;&quot;&gt;&lt;br&gt;CHANGE PITCH&lt;/font&gt;" style="shape=module;align=left;spacingLeft=20;align=center;verticalAlign=top;whiteSpace=wrap;html=1;fillColor=#f8cecc;strokeColor=#b85450;" vertex="1" parent="1">
          <mxGeometry x="60" y="260" width="250" height="80" as="geometry" />
        </mxCell>
        <mxCell id="EZcokHrr8Fi_CWz-Pktu-12" value="&lt;font style=&quot;font-size: 16px;&quot;&gt;&lt;br&gt;QUIT PROGRAM&lt;/font&gt;" style="shape=module;align=left;spacingLeft=20;align=center;verticalAlign=top;whiteSpace=wrap;html=1;fillColor=#dae8fc;strokeColor=#6c8ebf;" vertex="1" parent="1">
          <mxGeometry x="60" y="370" width="250" height="80" as="geometry" />
        </mxCell>
        <mxCell id="EZcokHrr8Fi_CWz-Pktu-13" value="&lt;font style=&quot;font-size: 18px;&quot;&gt;SYSTEM&lt;/font&gt;" style="verticalAlign=top;align=center;spacingTop=8;spacingLeft=2;spacingRight=12;shape=cube;size=10;direction=south;fontStyle=4;html=1;whiteSpace=wrap;fillColor=#dae8fc;strokeColor=#6c8ebf;" vertex="1" parent="1">
          <mxGeometry x="440" y="640" width="330" height="400" as="geometry" />
        </mxCell>
        <mxCell id="EZcokHrr8Fi_CWz-Pktu-14" value="" style="line;strokeWidth=1;fillColor=none;align=left;verticalAlign=middle;spacingTop=-1;spacingLeft=3;spacingRight=3;rotatable=0;labelPosition=right;points=[];portConstraint=eastwest;strokeColor=inherit;" vertex="1" parent="1">
          <mxGeometry x="440" y="690" width="320" height="8" as="geometry" />
        </mxCell>
        <mxCell id="EZcokHrr8Fi_CWz-Pktu-15" value="&lt;font style=&quot;font-size: 16px;&quot;&gt;CHECK MOUSE &amp;amp; KEYBOARD&lt;br&gt;&lt;br&gt;SETUPSCREEN&lt;/font&gt;" style="shape=module;align=left;spacingLeft=20;align=center;verticalAlign=top;whiteSpace=wrap;html=1;fillColor=#ffe6cc;strokeColor=#d79b00;" vertex="1" parent="1">
          <mxGeometry x="470" y="730" width="250" height="70" as="geometry" />
        </mxCell>
        <mxCell id="EZcokHrr8Fi_CWz-Pktu-16" value="&lt;font style=&quot;font-size: 16px;&quot;&gt;ASSIGN KEYS&lt;br&gt;&lt;br&gt;RESPOND TO INPUTS&lt;br&gt;&lt;/font&gt;" style="shape=module;align=left;spacingLeft=20;align=center;verticalAlign=top;whiteSpace=wrap;html=1;fillColor=#fff2cc;strokeColor=#d6b656;" vertex="1" parent="1">
          <mxGeometry x="470" y="830" width="250" height="70" as="geometry" />
        </mxCell>
        <mxCell id="EZcokHrr8Fi_CWz-Pktu-17" value="&lt;font style=&quot;font-size: 16px;&quot;&gt;MONITOR FREQUENCY&lt;/font&gt;" style="shape=module;align=left;spacingLeft=20;align=center;verticalAlign=top;whiteSpace=wrap;html=1;fillColor=#f8cecc;strokeColor=#b85450;" vertex="1" parent="1">
          <mxGeometry x="470" y="940" width="250" height="70" as="geometry" />
        </mxCell>
        <mxCell id="EZcokHrr8Fi_CWz-Pktu-18" value="" style="endArrow=block;startArrow=block;endFill=1;startFill=1;html=1;rounded=0;exitX=0;exitY=0;exitDx=380;exitDy=10;exitPerimeter=0;entryX=0;entryY=0;entryDx=5;entryDy=325;entryPerimeter=0;" edge="1" parent="1" source="EZcokHrr8Fi_CWz-Pktu-1" target="EZcokHrr8Fi_CWz-Pktu-13">
          <mxGeometry width="160" relative="1" as="geometry">
            <mxPoint x="430" y="520" as="sourcePoint" />
            <mxPoint x="590" y="520" as="targetPoint" />
          </mxGeometry>
        </mxCell>
      </root>
    </mxGraphModel>
  </diagram>
</mxfile>
